# xmcd
#
# Track frame offsets:
#	150
#	20892
#	40398
#	56401
#	77460
#	96858
#	116855
#	138808
#	161214
#	170816
#	192286
#	212082
#	224030
#	245777
#
# Disc length: 3546 seconds
#
# Revision: 1
# Processed by: cddbd v1.4PL0 Copyright (c) Steve Scherf et al.
# Submitted via: audiograbber 1.80
#
DISCID=d70dd80e
DTITLE=Gospel - Like A Prayer - Sound Of New Gospel
DYEAR=1900
DGENRE=
TTITLE0=He The Believeth
TTITLE1=We've Come To Praise Him
TTITLE2=Let The Redeemed Of The Lord Say So
TTITLE3=He'll Be There(When You Need Him)
TTITLE4=Higher
TTITLE5=Jesus Never Fails
TTITLE6=Fix Me Jesus
TTITLE7=I'm Going To Be With The Lord
TTITLE8=Oh Happy Day
TTITLE9=Stand Up (For Jesus)
TTITLE10=In His Presence
TTITLE11=Walk and Talk
TTITLE12=I'm Going Away
TTITLE13=Jesus Is My Saviour
EXTD=
EXTT0=
EXTT1=
EXTT2=
EXTT3=
EXTT4=
EXTT5=
EXTT6=
EXTT7=
EXTT8=
EXTT9=
EXTT10=
EXTT11=
EXTT12=
EXTT13=
PLAYORDER=
